<svg class="logo" width="100%" height="100%" viewBox="0 0 448 512" xmlns="http://www.w3.org/2000/svg" xmlns:svg="http://www.w3.org/2000/svg">
 <g>
  <path id="sship" stroke-miterlimit="4" stroke-width="1.12343"
        d="M 125.00,3.21
           C 142.58,3.00 184.96,2.07 200.00,4.44
             229.53,9.09 265.81,31.41 285.91,53.00
             291.89,59.42 299.79,69.40 304.13,77.00
             304.13,77.00 327.42,135.00 327.42,135.00
             327.42,135.00 380.31,279.00 380.31,279.00
             380.31,279.00 426.00,408.00 426.00,408.00
             426.00,408.00 438.00,443.00 438.00,443.00
             440.33,449.99 443.26,457.56 442.96,465.00
             442.09,486.59 424.22,504.26 404.00,509.10
             398.74,510.36 391.52,510.06 386.00,510.00
             364.49,509.74 351.78,492.18 341.00,476.00
             337.21,470.31 330.08,456.85 324.00,454.60
             322.07,453.89 319.08,454.00 317.00,454.00
             317.00,454.00 285.00,454.00 285.00,454.00
             285.00,454.00 268.00,453.00 268.00,453.00
             268.00,453.00 49.00,453.00 49.00,453.00
             36.24,452.85 18.72,446.49 14.65,433.00
             13.89,430.50 14.00,427.60 14.00,425.00
             14.00,425.00 14.00,109.00 14.00,109.00
             14.00,109.00 14.00,44.00 14.00,44.00
             14.00,33.88 11.96,23.15 19.33,15.17
             21.33,13.01 24.54,10.70 27.00,9.03
             38.20,1.44 42.90,5.14 55.00,3.21
             55.00,3.21 125.00,3.21 125.00,3.21 Z
           M 39.00,12.53
           C 30.25,14.61 22.16,21.66 22.00,31.00
             22.00,31.00 22.00,95.00 22.00,95.00
             22.00,95.00 22.00,354.00 22.00,354.00
             22.00,354.00 22.00,410.00 22.00,410.00
             22.00,416.70 21.00,428.44 24.72,433.96
             31.02,443.28 43.71,444.98 54.00,445.00
             54.00,445.00 246.00,445.00 246.00,445.00
             246.00,445.00 261.00,446.00 261.00,446.00
             261.00,446.00 325.00,446.00 325.00,446.00
             327.24,446.00 330.68,445.78 332.59,447.02
             334.47,448.25 336.07,451.98 337.18,454.00
             337.18,454.00 345.05,467.00 345.05,467.00
             355.10,482.84 367.01,501.74 388.00,502.00
             407.80,502.24 423.90,495.52 431.79,476.00
             433.47,471.87 435.18,467.54 434.81,463.00
             434.42,458.19 430.06,446.19 428.33,441.00
             428.33,441.00 414.34,400.00 414.34,400.00
             414.34,400.00 368.31,270.00 368.31,270.00
             368.31,270.00 320.42,140.00 320.42,140.00
             310.70,114.00 301.47,82.71 282.83,62.00
             262.86,39.81 227.95,17.16 198.00,12.44
             198.00,12.44 188.00,11.91 188.00,11.91
             188.00,11.91 176.00,11.09 176.00,11.09
             176.00,11.09 124.00,11.09 124.00,11.09
             124.00,11.09 52.00,11.09 52.00,11.09
             52.00,11.09 39.00,12.53 39.00,12.53 Z
           M 175.00,40.00
           C 185.23,40.02 192.36,43.01 202.00,45.98
             209.12,48.16 216.24,50.11 223.00,53.32
             245.15,63.85 266.26,86.66 276.14,109.00
             280.82,119.59 284.86,135.41 285.00,147.00
             285.32,174.62 277.91,200.62 259.70,222.00
             259.70,222.00 232.92,250.00 232.92,250.00
             227.61,256.45 223.18,263.29 224.29,272.00
             225.86,284.37 236.71,302.19 243.20,313.00
             243.20,313.00 286.81,383.00 286.81,383.00
             291.97,391.42 304.78,409.05 306.00,418.00
             306.00,418.00 232.00,418.00 232.00,418.00
             232.00,418.00 217.00,419.00 217.00,419.00
             217.00,419.00 95.00,419.00 95.00,419.00
             95.00,419.00 80.00,420.00 80.00,420.00
             80.00,420.00 50.00,420.00 50.00,420.00
             50.00,420.00 49.00,404.00 49.00,404.00
             49.00,404.00 49.00,228.00 49.00,228.00
             49.00,228.00 49.00,130.00 49.00,130.00
             49.00,130.00 50.00,115.00 50.00,115.00
             50.00,115.00 50.00,40.00 50.00,40.00
             50.00,40.00 175.00,40.00 175.00,40.00 Z
           M 335.95,272.00
           C 335.95,272.00 387.20,409.00 387.20,409.00
             392.51,422.27 400.60,441.27 402.57,455.00
             403.33,460.26 403.87,470.72 396.96,471.85
             384.97,473.82 381.65,465.47 376.00,457.00
             376.00,457.00 341.31,403.00 341.31,403.00
             341.31,403.00 281.40,308.00 281.40,308.00
             281.40,308.00 266.72,284.00 266.72,284.00
             264.92,280.83 262.00,276.78 262.49,273.00
             263.01,269.06 267.69,263.96 270.29,261.00
             270.29,261.00 293.00,236.00 293.00,236.00
             293.00,236.00 308.53,213.14 308.53,213.14
             310.22,211.25 310.85,211.07 313.00,210.00
             313.00,210.00 335.95,272.00 335.95,272.00 Z
           M 145.00,335.00
           C 145.00,335.00 145.00,393.00 145.00,393.00
             145.00,393.00 158.00,393.00 158.00,393.00
             158.00,393.00 158.00,359.00 158.00,359.00
             161.11,358.89 165.06,358.33 167.57,360.57
             170.38,363.09 169.99,367.57 170.00,371.00
             170.00,371.00 170.00,393.00 170.00,393.00
             170.00,393.00 184.00,393.00 184.00,393.00
             184.00,393.00 184.00,376.00 184.00,376.00
             184.00,366.51 185.22,353.51 175.00,348.57
             170.56,346.42 163.01,347.00 158.00,347.00
             158.00,347.00 158.00,327.00 158.00,327.00
             150.67,327.16 145.16,326.43 145.00,335.00 Z
           M 204.89,341.26
           C 209.48,339.30 210.34,331.95 206.57,328.74
             204.09,326.63 200.94,327.00 198.04,327.60
             187.75,333.62 195.96,345.08 204.89,341.26 Z
           M 91.94,349.56
           C 89.89,346.52 81.36,346.96 78.00,347.00
             60.64,347.21 58.22,362.15 63.23,369.90
             68.06,377.39 74.91,373.15 82.00,382.00
             73.77,384.49 70.00,382.61 62.00,381.00
             61.51,383.45 59.59,389.24 61.03,391.28
             62.92,393.94 70.01,393.99 73.00,394.00
             81.24,394.04 90.53,394.33 94.11,385.00
             96.65,378.39 94.75,369.48 87.96,366.48
             85.69,365.47 74.96,363.38 75.75,359.98
             76.61,356.22 88.34,358.65 91.00,359.00
             91.69,356.60 93.45,351.80 91.94,349.56 Z
           M 132.94,349.56
           C 130.89,346.52 122.36,346.96 119.00,347.00
             101.64,347.21 99.22,362.15 104.23,369.90
             109.06,377.39 115.91,373.15 123.00,382.00
             114.77,384.49 111.00,382.61 103.00,381.00
             102.51,383.45 100.59,389.24 102.03,391.28
             103.92,393.94 111.01,393.99 114.00,394.00
             122.24,394.04 131.53,394.33 135.11,385.00
             137.65,378.39 135.75,369.48 128.96,366.48
             126.69,365.47 115.96,363.38 116.75,359.98
             117.61,356.22 129.34,358.65 132.00,359.00
             132.69,356.60 134.45,351.80 132.94,349.56 Z
           M 253.96,390.58
           C 264.83,381.93 265.27,358.32 252.00,349.99
             246.23,346.37 235.69,346.50 229.00,347.17
             226.83,347.39 222.40,347.96 220.99,349.73
             219.74,351.31 220.00,355.03 220.00,357.00
             220.00,357.00 220.00,380.00 220.00,380.00
             220.00,380.00 220.00,409.00 220.00,409.00
             220.00,409.00 233.00,409.00 233.00,409.00
             233.00,409.00 233.00,393.00 233.00,393.00
             239.48,394.58 248.47,394.96 253.96,390.58 Z
           M 195.00,348.00
           C 195.00,348.00 195.00,393.00 195.00,393.00
             195.00,393.00 208.00,393.00 208.00,393.00
             208.00,393.00 208.00,348.00 208.00,348.00
             208.00,348.00 195.00,348.00 195.00,348.00 Z
           M 242.95,359.94
           C 248.63,363.36 249.87,374.89 245.49,379.70
             242.75,382.72 233.20,385.58 233.00,375.00
             233.00,375.00 233.00,359.00 233.00,359.00
             236.49,358.62 239.73,358.01 242.95,359.94 Z"/>
 </g>
</svg>
